<svg width="129" height="30" viewBox="0 0 129 30" fill="none" xmlns="http://www.w3.org/2000/svg">
<g clip-path="url(#clip0_2431_1640)">
<path d="M40.5837 22.9252C39.106 22.9476 37.652 22.5526 36.3888 21.7857C35.1626 21.0377 34.1697 19.9621 33.5221 18.6801C32.8414 17.3427 32.4947 15.8604 32.5116 14.3598C32.5116 11.9415 33.2681 9.9109 34.7811 8.26814C36.2941 6.62538 38.2283 5.8028 40.5837 5.80042C42.721 5.80042 44.476 6.41078 45.8488 7.6315C46.5102 8.19998 47.0506 8.89553 47.438 9.67687C47.8253 10.4582 48.0518 11.3094 48.1039 12.1799H45.3221C45.2595 11.7527 45.125 11.3391 44.9243 10.9568C44.7012 10.5297 44.4149 10.1387 44.0751 9.79703C43.6629 9.39647 43.1697 9.08895 42.6286 8.89522C41.975 8.65429 41.2825 8.53644 40.5861 8.54764C38.9545 8.54764 37.6569 9.09828 36.6934 10.1996C35.7299 11.3008 35.2481 12.688 35.2481 14.361C35.2481 16.0332 35.7299 17.4208 36.6934 18.5236C37.6569 19.6265 38.9537 20.1771 40.5837 20.1756C41.931 20.1756 43.0247 19.8112 43.8648 19.0826C44.7049 18.354 45.1907 17.5577 45.3221 16.6937H48.1039C47.9582 18.2943 47.1647 19.7276 45.7234 20.9937C44.2821 22.2599 42.5689 22.9037 40.5837 22.9252Z" fill="#1A321E"/>
<path d="M53.5266 22.8607C52.3385 22.8607 51.373 22.5382 50.6301 21.8932C49.8871 21.2482 49.5161 20.3643 49.5168 19.2415C49.5168 18.1418 49.9731 17.2508 50.8857 16.5683C51.7982 15.8859 53.0118 15.4838 54.5263 15.3619L57.1338 15.1445V14.8734C57.1338 13.4178 56.3913 12.6896 54.9062 12.6888C54.211 12.6888 53.6261 12.8612 53.1515 13.206C52.6769 13.5508 52.4106 14.0684 52.3525 14.7587H49.831C49.9329 13.4982 50.4039 12.4479 51.244 11.6078C52.0841 10.7677 53.3339 10.3473 54.9934 10.3465C56.5223 10.3465 57.7215 10.7287 58.591 11.4931C59.4606 12.2576 59.895 13.3967 59.8942 14.9104V18.9214C59.8942 19.943 60.2127 20.4535 60.8497 20.4527V22.703H60.0232C59.6777 22.6955 59.333 22.6663 58.9912 22.6158C58.6798 22.5493 58.3867 22.4156 58.1324 22.224C57.8144 21.9984 57.5691 21.685 57.4265 21.3222C57.0856 21.7785 56.5585 22.148 55.845 22.4307C55.1066 22.7202 54.3197 22.8662 53.5266 22.8607ZM54.2433 20.6115C54.8422 20.6138 55.4304 20.4523 55.9442 20.1445C56.4303 19.8728 56.8408 19.484 57.1386 19.0134V17.1273L55.0853 17.3447C53.3335 17.5549 52.4604 18.1418 52.4659 19.1053C52.459 19.3156 52.5017 19.5245 52.5905 19.7152C52.6793 19.9059 52.8118 20.073 52.9772 20.203C53.3385 20.4827 53.7866 20.6269 54.2433 20.6103V20.6115Z" fill="#1A321E"/>
<path d="M69.6647 10.3297V12.9814C68.1788 12.9527 67.0541 13.2498 66.2904 13.8725C65.5268 14.4952 65.1446 15.5276 65.1438 16.9697V22.703H62.0908V10.4707H64.9156L65.1223 12.3185C65.3755 11.7675 65.8807 11.2949 66.638 10.9007C67.3953 10.5065 68.4042 10.3162 69.6647 10.3297Z" fill="#1A321E"/>
<path d="M85.6417 13.9155V22.7078H83.6936L83.303 20.4801C82.7595 21.2566 82.0168 21.8722 81.153 22.2622C80.3121 22.6309 79.2769 22.8157 78.0474 22.8165C75.6721 22.8165 73.7689 22.0377 72.338 20.4801C70.907 18.9226 70.1904 16.9048 70.188 14.4267C70.188 11.8905 70.9015 9.84043 72.3284 8.2765C73.7554 6.71257 75.6171 5.92982 77.9137 5.92822C79.8845 5.92822 81.5491 6.41396 82.9076 7.38544C84.2661 8.35693 85.058 9.76956 85.2834 11.6233H82.4991C82.4119 11.168 82.2348 10.7346 81.9782 10.3485C81.7217 9.9623 81.3908 9.6311 81.0049 9.37419C80.2038 8.82395 79.2638 8.54843 78.1848 8.54764C76.4959 8.54764 75.1863 9.0712 74.2563 10.1183C73.3262 11.1655 72.8612 12.6016 72.8612 14.4267C72.8612 16.1515 73.3664 17.545 74.3769 18.6072C75.3874 19.6695 76.6022 20.1994 78.0212 20.1971C79.4195 20.1971 80.5478 19.8511 81.4062 19.1591C82.2646 18.4671 82.6938 17.5346 82.6938 16.3617H78.5324V13.9155H85.6417Z" fill="#1A321E"/>
<path d="M98.365 16.5456C98.3626 16.8652 98.3407 17.1843 98.2993 17.5012H89.747C89.8203 18.4209 90.1428 19.1507 90.7145 19.6906C91.2612 20.2204 91.9958 20.5117 92.757 20.5004C94.1983 20.5004 95.1694 19.9534 95.6703 18.8593H98.1153C97.9338 19.9605 97.3847 20.895 96.4682 21.6626C95.5516 22.4302 94.3074 22.8145 92.7355 22.8153C90.9678 22.8153 89.5424 22.23 88.4594 21.0594C87.3765 19.8889 86.8354 18.399 86.8362 16.5898C86.8362 14.7496 87.3594 13.2497 88.4057 12.0903C89.452 10.9309 90.8957 10.3512 92.7367 10.3512C94.4759 10.3512 95.8487 10.913 96.8552 12.0366C97.8617 13.1602 98.365 14.6632 98.365 16.5456ZM92.714 12.7079C91.8955 12.7079 91.2417 12.9468 90.7528 13.4245C90.2638 13.9023 89.9537 14.5553 89.8223 15.3834H95.4732C95.2351 13.5997 94.3154 12.7079 92.714 12.7079Z" fill="#1A321E"/>
<path d="M106.527 10.3082C107.924 10.3082 109.02 10.7012 109.814 11.4871C110.608 12.2731 111.006 13.3724 111.008 14.785V22.7078H107.978V15.1433C107.978 14.4482 107.779 13.9143 107.381 13.5416C106.982 13.1689 106.414 12.9822 105.675 12.9814C104.924 12.965 104.189 13.1917 103.577 13.6276C102.983 14.0592 102.686 14.6166 102.686 15.2998V22.7113H99.6263V10.4707H102.342L102.549 12.0688C103.021 11.5098 103.619 11.0703 104.293 10.786C104.996 10.4711 105.757 10.3083 106.527 10.3082Z" fill="#1A321E"/>
<path d="M114.384 9.22129C114.175 9.22251 113.969 9.18179 113.777 9.10156C113.584 9.02132 113.41 8.90321 113.264 8.75426C113.114 8.60627 112.994 8.42969 112.912 8.23486C112.83 8.04002 112.788 7.83084 112.788 7.61954C112.788 7.40824 112.83 7.19906 112.912 7.00422C112.994 6.80939 113.114 6.63282 113.264 6.48482C113.413 6.33674 113.588 6.21928 113.782 6.13915C113.975 6.05901 114.183 6.01776 114.392 6.01776C114.601 6.01776 114.809 6.05901 115.002 6.13915C115.196 6.21928 115.371 6.33674 115.52 6.48482C115.669 6.63371 115.787 6.81058 115.868 7.00529C115.949 7.2 115.99 7.40874 115.99 7.61954C115.99 7.83035 115.949 8.03908 115.868 8.23379C115.787 8.4285 115.669 8.60537 115.52 8.75426C115.372 8.90526 115.195 9.02456 115 9.10486C114.804 9.18516 114.595 9.22478 114.384 9.22129ZM112.917 10.4707H115.916V22.7078H112.917V10.4707Z" fill="#1A321E"/>
<path d="M129 16.5456C128.997 16.8651 128.976 17.1842 128.935 17.5012H120.383C120.455 18.4209 120.777 19.1507 121.35 19.6906C121.897 20.2206 122.632 20.5119 123.393 20.5004C124.834 20.5004 125.804 19.9534 126.305 18.8593H128.75C128.569 19.9605 128.02 20.895 127.103 21.6626C126.187 22.4303 124.942 22.8145 123.371 22.8153C121.603 22.8153 120.177 22.23 119.094 21.0594C118.011 19.8889 117.47 18.3986 117.47 16.5886C117.47 14.7484 117.994 13.2486 119.041 12.0891C120.088 10.9297 121.531 10.35 123.371 10.35C125.11 10.35 126.482 10.9118 127.489 12.0354C128.495 13.159 128.999 14.6624 129 16.5456ZM123.349 12.7079C122.53 12.7079 121.877 12.9468 121.388 13.4245C120.899 13.9023 120.589 14.5545 120.458 15.381H126.109C125.871 13.5989 124.95 12.7079 123.349 12.7079Z" fill="#1A321E"/>
<path d="M14.1174 29.1172C11.3254 29.117 8.59608 28.289 6.27466 26.7378C3.95324 25.1866 2.14392 22.9818 1.07549 20.4023C0.00705078 17.8228 -0.272514 14.9845 0.27214 12.2461C0.816795 9.50774 2.16121 6.99237 4.13538 5.01805C5.44629 3.70708 7.00258 2.66716 8.7154 1.95766C10.4282 1.24817 12.264 0.882996 14.118 0.882996C15.9719 0.882996 17.8077 1.24817 19.5205 1.95766C21.2333 2.66716 22.7896 3.70708 24.1005 5.01805C24.5817 5.49925 24.8521 6.1519 24.8521 6.83242C24.8521 7.51293 24.5817 8.16558 24.1005 8.64678C23.6193 9.12797 22.9667 9.39831 22.2862 9.39831C21.6056 9.39831 20.953 9.12797 20.4718 8.64678C19.215 7.38983 17.6137 6.53381 15.8703 6.18697C14.127 5.84013 12.32 6.01805 10.6777 6.69823C9.03553 7.37841 7.6319 8.53029 6.64435 10.0082C5.65681 11.4861 5.12971 13.2237 5.12971 15.0012C5.12971 16.7787 5.65681 18.5163 6.64435 19.9942C7.6319 21.4722 9.03553 22.624 10.6777 23.3042C12.32 23.9844 14.127 24.1623 15.8703 23.8155C17.6137 23.4686 19.215 22.6126 20.4718 21.3557C20.953 20.8745 21.6056 20.6041 22.2862 20.6041C22.9667 20.6041 23.6193 20.8745 24.1005 21.3557C24.5817 21.8369 24.8521 22.4895 24.8521 23.17C24.8521 23.8505 24.5817 24.5032 24.1005 24.9844C22.7923 26.2989 21.2364 27.3411 19.5228 28.0504C17.8092 28.7598 15.972 29.1224 14.1174 29.1172Z" fill="#7BB66D"/>
<path d="M13.9881 9.62979C12.5529 9.65337 11.1846 10.2407 10.1789 11.2649C9.17314 12.289 8.61078 13.6678 8.61329 15.1032C8.6158 16.5386 9.18298 17.9154 10.1923 18.936C11.2016 19.9567 12.5719 20.5392 14.0072 20.5578C16.7162 20.5578 22.827 16.0655 24.1516 15.0729C22.827 14.0791 16.6983 9.62979 13.9881 9.62979ZM13.9367 16.9708C13.5648 16.9699 13.2016 16.8587 12.8929 16.6513C12.5842 16.4438 12.344 16.1495 12.2026 15.8056C12.0612 15.4616 12.025 15.0834 12.0986 14.7189C12.1722 14.3543 12.3522 14.0198 12.6159 13.7576C12.8796 13.4954 13.2152 13.3173 13.5802 13.2458C13.9451 13.1743 14.3231 13.2127 14.6662 13.356C15.0094 13.4994 15.3023 13.7413 15.5079 14.0511C15.7136 14.361 15.8227 14.7249 15.8216 15.0968C15.82 15.5952 15.6205 16.0726 15.2671 16.424C14.9137 16.7754 14.4351 16.9721 13.9367 16.9708Z" fill="#1A321E"/>
</g>
<defs>
<clipPath id="clip0_2431_1640">
<rect width="129" height="28.2343" fill="white" transform="translate(0 0.882874)"/>
</clipPath>
</defs>
</svg>
